<svg clip-rule="evenodd" fill-rule="evenodd" height="512" image-rendering="optimizeQuality" shape-rendering="geometricPrecision" text-rendering="geometricPrecision" viewBox="0 0 2048 2048" width="512" xmlns="http://www.w3.org/2000/svg"><g id="Layer_x0020_1"><g id="_233895888"><path id="_233897880" d="m1789.15 1485.53v-.0956694zm.0011811-654.36h-1641.33l.00236221 1001.71c0 28.7906 23.4284 52.2591 52.2567 52.2591h1536.81c28.8248 0 52.2567-23.4685 52.2567-52.2591v-347.256c.0531496 7.63347 6.26339 13.8071 13.9099 13.8071h13.9063 31.0028c44.1449.00236221 80.0363-35.9244 80.0363-80.0729v-1015.62c0 7.67599-6.23032 13.9063-13.9063 13.9051h-13.9063l-.00236221 1001.71c0 28.8295-23.4284 52.2591-52.2213 52.2591l-31.0028.0011811-13.9075.0011811c-7.64764 0-13.8555 6.17717-13.9087 13.8106l.0011811-654.264z" fill="#9bc9ff"/><g fill="#1e81ce"><path id="_233897664" d="m200.079 576.382c-28.8307 0-52.2638 23.4331-52.2638 52.226l.00236221 1204.27c0 28.7906 23.4284 52.2591 52.2567 52.2591h1536.81c28.8248 0 52.2567-23.4685 52.2567-52.2591l.0011811-1204.27c0-28.7929-23.4331-52.2237-52.2603-52.2237l-1536.81-.0011811zm1536.81 1336.57h-1536.81c-44.1508 0-80.0788-35.9244-80.0788-80.0717l.0011811-1204.27c0-44.1473 35.9256-80.0375 80.0729-80.0375l1536.81-.0011811c44.1449 0 80.0717 35.8914 80.0717 80.0398l.0011811 1204.27c0 44.1473-35.928 80.0729-80.0729 80.0717z"/><path id="_233897568" d="m1803.06 831.166h-1669.14c-7.68071 0-13.911-6.22914-13.911-13.9063.0011811-7.71497 6.22914-13.9075 13.9075-13.9075l1669.15-.00236221c7.67599 0 13.9051 6.19489 13.9051 13.9099.0011811 7.67599-6.22914 13.9063-13.9051 13.9063z"/><path id="_233896872" d="m1315.44 663.591c-14.3043 0-25.9701 11.6268-25.9701 25.9323 0 14.3043 11.661 25.9677 25.9677 25.9677s25.9311-11.6622 25.9311-25.9677-11.6256-25.9311-25.9288-25.9323zm0 79.7138c-29.661 0-53.7839-24.1205-53.7839-53.7815.00354331-29.6256 24.1205-53.7449 53.7815-53.7449 29.6268-.0011811 53.7449 24.1205 53.7449 53.7449.00236221 29.661-24.1205 53.7815-53.7426 53.7815z"/><path id="_233896944" d="m1472.69 663.591c-14.3043 0-25.9323 11.6268-25.9323 25.9323.00354331 14.3043 11.6268 25.9677 25.9311 25.9677 14.3067 0 25.9311-11.6622 25.9311-25.9677.00354331-14.3055-11.6244-25.9311-25.9299-25.9323zm0 79.7138c-29.661 0-53.7461-24.1205-53.7461-53.7815.0011811-29.6256 24.0851-53.7449 53.7449-53.7449 29.6268-.0011811 53.7461 24.1205 53.7461 53.7449 0 29.661-24.1193 53.7815-53.7449 53.7815z"/><path id="_233896824" d="m1629.94 663.591c-14.3055 0-25.9347 11.6268-25.9347 25.9323.0011811 14.3043 11.6268 25.9677 25.9311 25.9677 14.3079 0 25.9311-11.6622 25.9311-25.9677.0011811-14.3055-11.6256-25.9311-25.9276-25.9323zm0 79.7138c-29.6256 0-53.7485-24.1205-53.7485-53.7815.00354331-29.6256 24.1205-53.7449 53.7449-53.7449 29.628-.0011811 53.7461 24.1205 53.7461 53.7449.00236221 29.661-24.1205 53.7815-53.7426 53.7815z"/><path id="_233896728" d="m1847.96 1499.43h-44.9091c-7.67953 0-13.9099-6.22678-13.9099-13.9051.0011811-7.67717 6.22914-13.9063 13.9087-13.9063l44.9103-.00236221c28.7929 0 52.2213-23.4295 52.2213-52.2591l.00236221-1204.24c0-28.8272-23.4355-52.2603-52.226-52.2603l-1536.85-.0011811c-28.7929 0-52.2626 23.4343-52.2626 52.2615l.0011811 347.353c0 7.67717-6.23032 13.9075-13.9075 13.9075-7.67835-.0011811-13.9075-6.22914-13.9075-13.9075l.00236221-347.353c0-44.1473 35.9244-80.0741 80.0717-80.0741l1536.85-.0011811c44.1485 0 80.0363 35.928 80.0363 80.0753v1204.24c0 44.1485-35.8914 80.0753-80.0363 80.0729z"/><path id="_233897016" d="m1914.09 417.644h-1669.14c-7.68071 0-13.9099-6.22678-13.9099-13.9051.00236221-7.67835 6.22914-13.9075 13.9075-13.9075h1669.15c7.67599 0 13.9063 6.22914 13.9063 13.9075 0 7.67599-6.23032 13.9063-13.9063 13.9051z"/><path id="_233896584" d="m1426.48 250.071c-14.3043 0-25.9323 11.6634-25.9323 25.9677.00354331 14.3043 11.6256 25.9311 25.9311 25.9311 14.3079 0 25.9311-11.6256 25.9311-25.9311s-11.6244-25.9677-25.9299-25.9677zm0 79.7115c-29.6233 0-53.7461-24.1181-53.7461-53.7437.00236221-29.6622 24.1205-53.7815 53.7449-53.7815 29.6634-.0011811 53.7461 24.1205 53.7461 53.7815 0 29.6233-24.0851 53.7461-53.7449 53.7437z"/><path id="_233896680" d="m1583.73 250.071c-14.3043 0-25.9347 11.6634-25.9347 25.9677.0011811 14.3043 11.6256 25.9311 25.9311 25.9311 14.3091 0 25.9677-11.6256 25.9677-25.9311.0011811-14.3055-11.6622-25.9677-25.9642-25.9677zm0 79.7115c-29.628 0-53.7485-24.1181-53.7485-53.7437.00354331-29.6622 24.1205-53.7815 53.7449-53.7815 29.6658-.0011811 53.7815 24.1205 53.7815 53.7815.00354331 29.6233-24.1205 53.7461-53.778 53.7437z"/><path id="_233896464" d="m1740.98 250.071c-14.3043 0-25.9323 11.6634-25.9323 25.9677.00354331 14.3043 11.6256 25.9311 25.9311 25.9311s25.9677-11.6256 25.9677-25.9311-11.6622-25.9677-25.9666-25.9677zm0 79.7115c-29.6244 0-53.7473-24.1181-53.7473-53.7437.00236221-29.6622 24.1217-53.7815 53.7461-53.7815 29.6634-.0011811 53.7827 24.1205 53.7827 53.7815 0 29.6233-24.1205 53.7461-53.7815 53.7437z"/></g><path id="_233896416" d="m1372.73 276.039c.00236221-29.6622 24.1205-53.7815 53.7449-53.7815 29.6634-.0011811 53.7461 24.1205 53.7461 53.7815 0 29.6233-24.0851 53.7461-53.7449 53.7437-29.6233 0-53.7461-24.1181-53.7461-53.7437zm157.252 0c.00354331-29.6622 24.1205-53.7815 53.7449-53.7815 29.6658-.0011811 53.7815 24.1205 53.7815 53.7815.00354331 29.6233-24.1205 53.7461-53.778 53.7437-29.628 0-53.7485-24.1181-53.7485-53.7437zm157.251 0c.00236221-29.6622 24.1217-53.7815 53.7461-53.7815 29.6634-.0011811 53.7827 24.1205 53.7827 53.7815 0 29.6233-24.1205 53.7461-53.7815 53.7437-29.6244 0-53.7473-24.1181-53.7473-53.7437zm-1428.38 113.792h1641.33v-174.709c0-28.8272-23.4355-52.2603-52.226-52.2603l-1536.85-.0011811c-28.7929 0-52.2626 23.4343-52.2626 52.2615l.0011811 174.709z" fill="#f8fafb"/><path id="_233896632" d="m1900.19 417.644h-1641.33v130.925l1478.03-.0011811c44.1449 0 80.0717 35.8914 80.0717 80.0398v188.652l.0011811 654.358 31.0028-.0011811c28.7929 0 52.2213-23.4295 52.2213-52.2591l.00236221-1001.71z" fill="#9bc9ff"/><path id="_233896368" d="m1736.89 576.383-1491.76-.0011811c-.0602363.0011811-.120473.0011811-.180709.0011811-.0590552 0-.119291 0-.178347-.0011811h-44.6906c-28.8307 0-52.2638 23.4331-52.2638 52.226v174.744l1641.33-.00236221v-174.743c0-28.7929-23.4331-52.2237-52.2603-52.2237zm-421.45 166.922c-29.661 0-53.7839-24.1205-53.7839-53.7815.00354331-29.6256 24.1205-53.7449 53.7815-53.7449 29.6268-.0011811 53.7449 24.1205 53.7449 53.7449.00236221 29.661-24.1205 53.7815-53.7426 53.7815zm103.504-53.7815c.0011811-29.6256 24.0851-53.7449 53.7449-53.7449 29.6268-.0011811 53.7461 24.1205 53.7461 53.7449 0 29.661-24.1193 53.7815-53.7449 53.7815-29.661 0-53.7461-24.1205-53.7461-53.7815zm157.252 0c.00354331-29.6256 24.1205-53.7449 53.7449-53.7449 29.628-.0011811 53.7461 24.1205 53.7461 53.7449.00236221 29.661-24.1205 53.7815-53.7426 53.7815-29.6256 0-53.7485-24.1205-53.7485-53.7815z" fill="#f8fafb"/><path id="_233895984" d="m1400.54 276.039c.00354331 14.3043 11.6256 25.9311 25.9311 25.9311 14.3079 0 25.9311-11.6256 25.9311-25.9311s-11.6244-25.9677-25.9299-25.9677c-14.3043 0-25.9323 11.6634-25.9323 25.9677z" fill="#9bc9ff"/><path id="_233895864" d="m1557.79 276.039c.0011811 14.3043 11.6256 25.9311 25.9311 25.9311 14.3091 0 25.9677-11.6256 25.9677-25.9311.0011811-14.3055-11.6622-25.9677-25.9642-25.9677-14.3043 0-25.9347 11.6634-25.9347 25.9677z" fill="#9bc9ff"/><path id="_233895960" d="m1715.05 276.039c.00354331 14.3043 11.6256 25.9311 25.9311 25.9311s25.9677-11.6256 25.9677-25.9311-11.6622-25.9677-25.9666-25.9677c-14.3043 0-25.9323 11.6634-25.9323 25.9677z" fill="#9bc9ff"/><path id="_233895768" d="m1341.37 689.523c0-14.3055-11.6256-25.9311-25.9288-25.9323-14.3043 0-25.9701 11.6268-25.9701 25.9323 0 14.3043 11.661 25.9677 25.9677 25.9677s25.9311-11.6622 25.9311-25.9677z" fill="#9bc9ff"/><path id="_233896176" d="m1472.69 663.591c-14.3043 0-25.9323 11.6268-25.9323 25.9323.00354331 14.3043 11.6268 25.9677 25.9311 25.9677 14.3067 0 25.9311-11.6622 25.9311-25.9677.00354331-14.3055-11.6244-25.9311-25.9299-25.9323z" fill="#9bc9ff"/><path id="_233896080" d="m1629.94 663.591c-14.3055 0-25.9347 11.6268-25.9347 25.9323.0011811 14.3043 11.6268 25.9677 25.9311 25.9677 14.3079 0 25.9311-11.6622 25.9311-25.9677.0011811-14.3055-11.6256-25.9311-25.9276-25.9323z" fill="#9bc9ff"/></g></g></svg>